/* XPM */
static char *result[] = {
/* columns rows colors chars-per-pixel */
"64 64 243 2 ",
"   c gray17",
".  c #2A2A2A",
"X  c #282828",
"o  c #2D2D2D",
"O  c #2C2C2C",
"+  c #2F2F2F",
"@  c gray18",
"#  c gray16",
"$  c #2B2A2B",
"%  c #2D2C2C",
"&  c #272727",
"*  c #2E2D2E",
"=  c #2E2E2F",
"-  c #2B2A2A",
";  c #2C2C2D",
":  c #2E2F2E",
">  c gray19",
",  c #2D2E2E",
"<  c #2B2C2B",
"1  c gray14",
"2  c gray15",
"3  c #313030",
"4  c gray32",
"5  c gray36",
"6  c gray37",
"7  c #585858",
"8  c #535353",
"9  c #515151",
"0  c #565656",
"q  c #555555",
"w  c gray33",
"e  c gray30",
"r  c #505050",
"t  c #4B4B4B",
"y  c #4C4C4C",
"u  c gray31",
"i  c gray34",
"p  c #5D5D5D",
"a  c #5F5F5F",
"s  c gray42",
"d  c #5B5B5B",
"f  c #4E4E4E",
"g  c #4E4D4E",
"h  c #4E4F4F",
"j  c #505150",
"k  c #6F6F6F",
"l  c gray35",
"z  c #464646",
"x  c #494949",
"c  c gray28",
"v  c #4A494A",
"b  c #4B4B4A",
"n  c #484848",
"m  c #4D4C4D",
"M  c #434343",
"N  c #444444",
"B  c #484949",
"V  c gray27",
"C  c gray26",
"Z  c gray29",
"A  c #6A6A6A",
"S  c #636362",
"D  c #454645",
"F  c gray25",
"G  c #414141",
"H  c #3E3E3E",
"J  c #3F3F3F",
"K  c gray24",
"L  c #515152",
"P  c #595A5A",
"I  c #3A3A3A",
"U  c gray23",
"Y  c gray22",
"T  c gray21",
"R  c #323232",
"E  c #313131",
"W  c gray20",
"Q  c #353535",
"!  c #4E4D4D",
"~  c #343434",
"^  c #595858",
"/  c #333233",
"(  c gray9",
")  c gray8",
"_  c #181818",
"`  c gray10",
"'  c #1D1D1D",
"]  c #1B1B1B",
"[  c gray11",
"{  c #1E1E1E",
"}  c #222222",
"|  c #4A4B4A",
" . c #4F4F50",
".. c #5A5A5A",
"X. c #4D4D4E",
"o. c gray7",
"O. c #202020",
"+. c gray12",
"@. c #1F1F20",
"#. c #212020",
"$. c gray13",
"%. c #232323",
"&. c #474748",
"*. c #565655",
"=. c #484747",
"-. c #504F50",
";. c #101010",
":. c #131313",
">. c #252525",
",. c #585857",
"<. c #0E0E0E",
"1. c #262727",
"2. c #191919",
"3. c #2A2B2B",
"4. c gray38",
"5. c #393939",
"6. c #3C3C3C",
"7. c #606060",
"8. c #1C1D1C",
"9. c #2B2B2A",
"0. c #2D2D2C",
"q. c #373737",
"w. c #2E2F2F",
"e. c #484748",
"r. c #161616",
"t. c #515050",
"y. c #2C2D2C",
"u. c #4B4A4A",
"i. c #49494A",
"p. c #151515",
"a. c #191819",
"s. c #323333",
"d. c #2C2B2C",
"f. c #2A2A2B",
"g. c #3D3C3D",
"h. c #494A49",
"j. c #4B4C4C",
"k. c #484849",
"l. c #545353",
"z. c #555454",
"x. c #1A1A19",
"c. c #272827",
"v. c #313132",
"b. c #292A29",
"n. c #4A4A49",
"m. c #2E2D2D",
"M. c #494948",
"N. c #1C1C1B",
"B. c #2C2B2B",
"V. c #4D4E4D",
"C. c #494A4A",
"Z. c #626262",
"A. c #515051",
"S. c #161615",
"D. c #2B2C2C",
"F. c #464647",
"G. c #272828",
"H. c #282827",
"J. c #464746",
"K. c #4C4C4D",
"L. c #454646",
"P. c #4F4F4E",
"I. c #1D1E1D",
"U. c #353435",
"Y. c #383939",
"T. c #474848",
"R. c #1E1E1D",
"E. c #252626",
"W. c #5B5A5A",
"Q. c #525352",
"!. c #202121",
"~. c #282929",
"^. c #292828",
"/. c #2F2E2E",
"(. c #1F2020",
"). c #2D2E2D",
"_. c #5B5B5A",
"`. c #5A5A59",
"'. c #2D2C2D",
"]. c #262525",
"[. c #2F2F2E",
"{. c #504F4F",
"}. c #2F302F",
"|. c #4C4B4C",
" X c #4D4E4E",
".X c #2C2C2B",
"XX c #2A292A",
"oX c #3F3F3E",
"OX c #484847",
"+X c #4A4A4B",
"@X c #1F1E1F",
"#X c #2B2B2C",
"$X c #29292A",
"%X c #2A2929",
"&X c #383938",
"*X c #292928",
"=X c #2A2A29",
"-X c #292A2A",
";X c #4E4E4D",
":X c #3C3C3B",
">X c #343334",
",X c #373837",
"<X c #636263",
"1X c gray39",
"2X c #4A4B4B",
"3X c #3B3A3A",
"4X c #3B3A3B",
"5X c #171818",
"6X c #403F40",
"7X c #292829",
"8X c #5B5C5B",
"9X c #555554",
"0X c #3F4040",
"qX c #535453",
"wX c #474647",
"eX c #373736",
"rX c #252625",
"tX c #282928",
"yX c #565756",
"uX c #1A1B1B",
"iX c gray40",
"pX c #575657",
"aX c #656565",
"sX c #555655",
"dX c #565657",
"fX c #2A2B2A",
"gX c #575758",
"hX c #4B4A4B",
"jX c #595958",
"kX c #474847",
"lX c #616160",
"zX c #494849",
"xX c #646464",
"cX c #636364",
"vX c #616262",
"bX c #5E5D5D",
"nX c #282829",
"mX c #4F4E4E",
"MX c #464545",
"NX c #6C6C6C",
"BX c #717171",
"VX c #272728",
"CX c white",
/* pixels */
"  .   . X o O   + @   O @ + @ + o O         O o o   .   @ O . o O   . # O O o   O .   +       O + . o . O o o O O O   $ % # . o ",
"+ + # . & . O * o o   O . o + =   # o O #   O     O X . O   -   o . &   O # O ; o .   @ O .   : > # & X , o . .   .   O < . O O ",
"+ > o # 1 o > . O o @ + . O o >   .   o   o   X O   .   . . O   o +   @ > @ @ o o o @ + + + > > @ O . # o + o o o @   1 2 # O   ",
"+ @ O 3 4 5 6 7 8 9 9 0 8 q w 0 w 8 4 8 q w e r 4 t y u r r 4 w i 8 q i w i q 9 r 9 w 8 7 w q 7 4 4 q 8 w 8 8 0 q p a u + . @ @ ",
"@ @   r s d i 0 8 8 u u 8 w w q 9 u f u u g t u 4 e y 4 u r r 4 0 w r w 8 4 8 u h j f e 8 9 9 q u y 4 9 u e t u q i a k 8 X @ @ ",
"o @ o i l u f z y x z c t v c y b z c z z n c n x y m v M x N n B n n t x V n t x n N c V z V x z c N C n V V x Z x q A S O @ + ",
"O O @ l 5 9 g n Z x c B D c Z n N F M M G z C G C M N C H H J F J J F K J H J G M G G K J F J z c V z V x n n Z e Z L a 7       ",
". O o P d t Z c x z z x V C J I I U U I Y T R > > E R W > @ > + > + o + R E E > W R R W W R Q Y H J n e n z N c y n Z 7 r 2 . . ",
"O o o 5 l ! f f u n V x x F W o + Q ~ E + & 2 & 2 & X X 2 X & 2 X & 2 X # # & X & & &   . .   : I C c Z y z G V n x Z d 7 # O   ",
"o @ @ ^ d r e f 9 f t c z F / ( ) _ ` ' ' ] ] [ [ [ [ ' [ ] [ ] [ [ [ ] ] ' { ' [ ] ] [ ' ' ' [ } Z t t Z c c Z | Z  ...w   O o ",
"+ o + ..d f f X.v c x y n G G W o.o.( ` ' ' { { O.+.+.+.+.+.+.[ @.} #.O.O.$.$.$.%.$.$.O.$.$.+.+.M i e Z &.c z Z t Z t i *.@ + o ",
"@ + + d 0 f n n c N x Z Z z =.-.F ;.:.` O.1 1 %.2 2 2 & & 2 >.1 1 2 2 & >.1 X & & & X X 2 >.>.c 6 q t y g x n x x c t ,.w > O   ",
". O @ 7 q t z N M G M V c c x y l N <.) O.2 # . .     O .     # X X 1.  # .       # .   O . f 6 7 u n c x c N n n N c ..w +   . ",
". # o 0 q z n F I ~ Y H M V V z e a N o.2.%.. o     3.# 3.o   & #   & O O # . . O   O     u 4.w 9 Z c z N U T 5.N z x 0 q o @ O ",
"O O @ 0 ..x V 6.@ X O W K M z N x 4 7.z ( 8.>.9.    o   . . # & #   O X     #   . 0.    h 7.i r x x z F q.R @ E J n e l 7   o w.",
"@ @ O 8 0 Z e.I # r.%.+ E K N c Z t.q 4.n ( ' 2 . . O y.. .   O . . # # . O o .     . e 5 r y y x c H Q W . ' T V u.t l i @   o ",
". O o q 7 e i.5.& ) :.2 > ~ K V c e e 8 4.z ( ' 1 . o O     O . # . 2 & #   O O . & Z l y x Z n V G Q R   ` ' z u y u i q O . + ",
". . . i 7 t N I 3.r.p._ & E ~ F V e.c Z 8 a V a.] >.. @ O . . & # # & & & X #   # n 0 t n z V M 6.T s.  ] ' } f 4 e f i q #   d.",
"  . # 7 p y M 5.+ 2.2.` ` # @ Y V V C z y 4 a c r.' 1 .   X . X . # 2 & >.X # f.y 7 e Z V n C g.~ R . [ { } & 9 u Z h.0 q   0.# ",
"@ o o 7 p e M Y o ` ' +.' ` & W U G N c j.r 4 p M r.+.>.# O   . # # #   . & . r ..f t f k.z H ~ > . ] [ $.>.  l.r c Z 7 z.  o   ",
"O   . d 6 Z C q.  [ $.>.O.] x.X ~ U M V x c e 4 7.V _ ' & O O O # O   . O c.y d u y x y V 6.s.v.# ` [ %.& . . w 4 z n 7 w O . . ",
"  . . 7 l x M q.  ] 1 X %.$.' 2.& Q 5.C c c t t r 6 z ( ' 2 # O X # b.X . f l y Z n.t c U E m.# ] ' } # . . # 8 w M.c 7 i + O # ",
"  . o q q x G Q o N.%.# X 2 O.[ ` . Q 5.C z Z n Z 8 4.c ) [ 1 X   <   B.f 6 V.t t C.V H W + # [ ' } &     #   8 8 e n 0 i @ > O ",
". #   0 i x F q.o { >.# & X >.$.[ ] # W 6.C Z c c y 9 a z p.{ 1   ; # u Z.9 n B n z F W + . [ [ %.X # O . #   8 4 Z n 0 w # .   ",
"# . # q l M.F T O +.>.. 2 # X 2 } { ` X I 6.M V c x Z A.6 n S.{ >.X f p 8 c c t N K Q R # ] ' %.X   O . #   D.9 8 V c i 8 # & . ",
"o # . 8 i y C q.  ' >.. . X X X X 1 ' `   Y 5.J F.n n x f 5 t 2.{ f d f r Z y c H T W . [ { %.&   O O o 3.# . 4 4 Z Z 7 0 . G.O ",
". . O w 7 y M 5.O { H.# # X & X . . & $.' O Y U C J.z c M n d 7 l 5 K.t z t x H W > # ' O.%.& X O o O @ @   . 9 q e u ..0   . O ",
"X X . i l j.n 5.O { 2 . O O . X .   # 2 } [ B.q.q.G z z F L.t q l Z Z V N G G T W # [ +.1 X # . O   O o o     8 r n P.d 0 O O O ",
"# # O q q Z n Y   +.2     . O O # &   # & I.] # U.U J G z n z z V z Z N N K T R . ' O.1 X O .     o O O o   . -.n V y 5 l o .   ",
"o   $ 0 ..r =.Y.O +.2 . O o O X . O   . . >.O.[   T I F G M C n M n Z T.J ~ > . ] R.} E.# @ O o O # # . # X   y x n ! 5 W., O o ",
"O   O d 5 Q.Z U o !.~.o o @ .   O . . #   # 1 $.' > H F M n N N N c t x F Q & [ +.} >.^.O O O O   2 2 . # & . Z t c t 7 ..@ O O ",
"f.  . ..d u V U o O.# @ > +   O /.O     O   X %.(.{ J y n c G M V V z G K + :.2.1 X X   O O ).E +   & o X X   f y V x l _.@ . O ",
"O     `...t c I o +.X +   O   O @ . o . O '.O # 1 $.y 8 t N c t c V x M I + :._ ].O .   o @ @ + @ o     O O O 8 4 c Z 7 7 O . # ",
". O @ i p t F.U [.+.X + O .   + > # X # @ o   # & x 5 {.Z c Z t f u z M Y I E ` %.O D.o   o + + O . o O .   @ r f Z z i i   X # ",
"o 9.o 7 7 y V U @ $.# @ @ @ @ }.@   X X O +   . f 4.4 c N N c N |.r t n F C  XJ ' >.  @ .   o @ . ~.. O       y f x c i w # # # ",
"    O 0 i Z C Y   O.X   + o @ @ . $ o   O   . r 7.w Z N V N G 6.J M n =.c z t ..c ' >.  . O   O . . f.  O   # u e M z w w # . O ",
"o O o i l t M 5..XO.& XXo   O @ . X O O . & Z a 0 y c N C oXW E ~ T H V OXc +Xw 4.Z @X2 O o O o . . . #   # # 9 r z v 7 w   . O ",
"  #Xo i 7 n z K @ O.& O . $X.   . %X# & # t 6 q f Z y c H Q @ 2 X R ~ &XF T.t t 0 4.c +.X O . O   . . . O O   r r Z e 7 4 O # O ",
". . O q l Z z 6.+ } *X=X# -X. O O   # X e 7.0 r e Z c K W > 1 p.( # R E Y V Z M.;Xi 4.n +.& O     # .     @ + 4 4 x t i 0 . . o ",
". # # 0 l y V 6.> } #   . # =X#   #   t.7.w y Z Z M :X>X@ %.r.r._ ] . W R ,XC M z r i <Xn +.X   .   O     O o 4 r J.c ..7 & # . ",
"  # # q ..y N U O $.X   X # # # . # e 1Xl t V V M 6.~ Q . ( [ { +.{ ] O E E 6.V x Z r ..Z.z +.X .   O     X 3.4 f n n i w   # # ",
"  . . 8 0 t c 6.O +.2 O . # .     u Z.7 u n n N 6.q.T # _ { >.. # 2 +.[ . W Q H c 2Xe w ..a V } & O b.    #   8 8 x Z l 4 . # X ",
"  o O 0 7 t N I > $.2 %XO   -X. e Z.i u Z z C K T Q # _ { & o o +   & +.[ . W T F V x 9 l l 4.c } # # X . .   q 7 Z t i w . # & ",
"#   O i 0 c V 5.o O.&   b.X X | 4.0 e y Z G 3XT ~ # 2.' 1 o O   o + O X { [ X E T H c t 8 l 6 4.c $.X       o w w v x ..0 O . X ",
"# # X i 0 x V 4X@ O.& O   b.f a i f n z G 4X~ Q # 5X' >.# @   . . o o   1 +.] 2 E q.G V Z 4 d 6 a n } # @   o 0 q x y ..0 O O . ",
". . X l l c C 5.E $.& . . u Z.0 r x N 6XI W E & 2.' 1 7X  o * O . # O   & %.+.` X > 5.C V x 9 7 8XZ.c %.. O @ l w n Z w 9X@ < X ",
".   o 4 l x F U Q 1 & . f Z...9 x c 0Xq.E R X _ ' >.O O o   ).+ O O o   O # 1 +.` 2 W U N V x u i 5 4.x 1 # @ i 8 n e 7 8 . # & ",
". . . 8 i y c F F $.2 f a qXu e wXG eXE R # _ { 2 . O O o o   o @ + O # # . # rX{ ]   T I M c x r d p 1Xe } tXi 8 z Z ..w . . O ",
". . & L yXt x e 0 # u 4.r y Z c C U R E # _ { &   o @         +   O O . .   O # 1 +.uX# Q K C V c 9 q i iXr o d r n e ..q O O   ",
"# # X 9 8 z N e 5 4.1X8 t c N G Y W W . 2.+.>.X   @ @ O   # O O . . XX.X        ^.& $.] # q.I C V n Z e pXaXZ.a Z z y 6 7 . . X ",
"  X & 9 r V V Z r q 8 y c z J 5.R E # 2.+.2 X # # O   . .   o ~.. . X D.o   . O O   2 { 2.- ~ U N N M z t r w r n V z 7 i X . # ",
"# # # 0 sXV n y c Z Z e c M 5.E E # _ ' >.X     # #   < .   o . o o O O o   . f.o   # 1 { `   5.U J M c Z y c N C N y dXw o     ",
"# O O q d c z z x Z n y V I E ~ . ( { & .   #   . # . fX.     .   o . @ @   .     .X  . 1 [ _ R z C V V x c x c c V f gXq @   o ",
"X . # 8 l e C F c n hXt F E +   r.' & O . # X . # . . .   o O #   . X O   . .   O X .   & } [ _ g.u V V n c t n z N x jX0 o # O ",
"  . O 7 ..e c x x x n Z N T ~ ' { X O @   #   . . o   O o + E O D.  o   .   O O @ 3.  O . . %.` $.8 t V z n | Z kXe e l w . # # ",
"o '.  ..lXP.z n zXt f n M N G n 5 4.7 i q w d 4.Z.xXZ.1XZ.Z.xX1XZ.Z.1XxXcXxX1X1XxXxXZ.1X7.7.6 ..0 w t N x c t Z x t y d i   O # ",
"O   O 7 p c z t n n t u.c V N u d a d q q 7 d a aXxXxXxXZ.7.7.Z.4.1X4.1XxXxXZ.Z.1X1XvXZ.p 6 d l 4 y Z c y n x n z n t bXd @ O O ",
"  .   7 a t y t x e y t x c &.x y e e y n n x e r 4 f f f Z n u 4 e y Z e u y y f t t f t t n c c n z n t n z N F.x f a Z.. nXO ",
". X . 6 5 9 e Z n n x t y t n V Z m t f h x N z mXu e Z c V MXt Z c x z n t x Z Z c y n Z n V M x t u f u y n n x t u aX4.& >.# ",
"# # & 8 NXi 0 9 u e e f r u t t u y u r r e t e e u 4 r e e e y c y y u f r 8 9 u f u u 4 w r y u 9 r 9 q 4 u f Z f 7 BXq %.# >.",
"X #   @ r 7 7 f e f u y e f Z x t e e e f y n t c Z u 9 r u y y y e y y t y 9 y f f e u u X.9 9 f Z f f r t f y n f 4 u E # -XX ",
"X . o # 1 # O o   O O . f.@ o @ O . .   . . . X ^.; @ @ @ + w.O O O . . .X@ *   O O   B.m.@ , # O o O   o     O # 2 2 } >.# &   ",
"c.. O o @ O . @ @ . X X   O   #X  2 2 # X & # & # .     o O   . #       O @ o     O   O o o . . O . . #   . # .   X & X tX. X X ",
"# # # X o @ &   E   X   O o @ > @ . & o X #   . f.. . O o o . 9..   B.@ O o   O O   o @ > @   O + O       O . # # . # # .   & VX"
};
